    <svg width="25" height="25" viewBox="0 0 14 15" fill="none">
      <path
        d="M6.98066 14.3792C10.7611 14.3792 13.836 11.2998 13.836
         7.51932C13.836 3.73888 10.7611 0.664009 6.98066 0.664009C3.20021 
         0.664009 0.121939 3.73888 0.121939 7.51932C0.121939 11.2998 3.20021 14.3792 
         6.98066 14.3792ZM7.57539 10.444C7.45721 10.4484 7.34046 10.4169 7.24063 10.3535C7.1408 10.2901 7.06259 10.1979 7.01638 10.089C6.97017 9.98013 6.95813 9.85982 6.98186 9.74396C7.0056 9.62811 7.06398 9.52217 7.14928 9.44025L8.48343 8.10495H4.06969C3.9172 8.10161 3.77207 8.03871 3.6654 7.92968C3.55873 7.82065 3.499 7.67415 3.499 7.52161C3.499 7.36908 3.55873 7.22264 3.6654 7.11361C3.77207 7.00457 3.9172 6.94161 4.06969 6.93827H8.48799L7.14928 5.59961C7.09146 5.54625 7.04504 5.48171 7.01279 5.40994C6.98055 5.33817 6.96316 5.26065 6.96167 5.18198C6.96017 5.10332 6.97461 5.02516 7.0041 4.95221C7.03359 4.87927 7.07754 4.81302 7.13329 4.7575C7.18904 4.70198 7.25544 4.65831 7.3285 4.62912C7.40157 4.59993 7.47978 4.58586 7.55844 4.58768C7.6371 4.58949 7.71458 4.60721 7.78622 4.63975C7.85785 4.67229 7.92217 4.71897 7.97529 4.77701L10.3098 7.11031C10.4184 7.21962 10.4794 7.36749 10.4794 7.52161C10.4794 7.67573 10.4184 7.82361 10.3098 7.93291L7.97529 10.2674C7.86992 10.3759 7.72654 10.4392 7.57539 10.444Z"
        fill="white"
      />
    </svg>